<svg width="24" height="24" viewBox="0 0 24 24" fill="none" xmlns="http://www.w3.org/2000/svg">
<path fill-rule="evenodd" clip-rule="evenodd" d="M12.0004 5.15002C12.4698 5.15002 12.8504 5.53058 12.8504 6.00002V11.15H18.0004C18.4698 11.15 18.8504 11.5306 18.8504 12C18.8504 12.4695 18.4698 12.85 18.0004 12.85H12.8504V18C12.8504 18.4695 12.4698 18.85 12.0004 18.85C11.5309 18.85 11.1504 18.4695 11.1504 18V12.85H6.00039C5.53095 12.85 5.15039 12.4695 5.15039 12C5.15039 11.5306 5.53095 11.15 6.00039 11.15H11.1504V6.00002C11.1504 5.53058 11.5309 5.15002 12.0004 5.15002Z" fill="#1F2937"/>
</svg>
